<mxfile host="Electron" modified="2023-05-14T16:04:53.957Z" agent="Mozilla/5.0 (Windows NT 10.0; Win64; x64) AppleWebKit/537.36 (KHTML, like Gecko) draw.io/21.2.8 Chrome/112.0.5615.165 Electron/24.2.0 Safari/537.36" etag="pB6G2Ay6hSwfneZwC0BK" version="21.2.8" type="device">
  <diagram name="第 1 页" id="l9FvGU3IutL-vU-HciU5">
    <mxGraphModel dx="1098" dy="868" grid="1" gridSize="10" guides="1" tooltips="1" connect="1" arrows="1" fold="1" page="1" pageScale="1" pageWidth="827" pageHeight="1169" math="0" shadow="0">
      <root>
        <mxCell id="0" />
        <mxCell id="1" parent="0" />
        <mxCell id="eo-bYz45HFi3uBXh9IhI-4" style="edgeStyle=orthogonalEdgeStyle;rounded=0;orthogonalLoop=1;jettySize=auto;html=1;exitX=0;exitY=0.75;exitDx=0;exitDy=0;entryX=0;entryY=0;entryDx=0;entryDy=0;curved=1;" edge="1" parent="1" source="eo-bYz45HFi3uBXh9IhI-1" target="eo-bYz45HFi3uBXh9IhI-2">
          <mxGeometry relative="1" as="geometry" />
        </mxCell>
        <mxCell id="eo-bYz45HFi3uBXh9IhI-11" value="&lt;b&gt;Clone&lt;/b&gt;" style="edgeLabel;html=1;align=center;verticalAlign=middle;resizable=0;points=[];" vertex="1" connectable="0" parent="eo-bYz45HFi3uBXh9IhI-4">
          <mxGeometry x="0.4776" y="21" relative="1" as="geometry">
            <mxPoint as="offset" />
          </mxGeometry>
        </mxCell>
        <mxCell id="eo-bYz45HFi3uBXh9IhI-5" style="edgeStyle=orthogonalEdgeStyle;rounded=0;orthogonalLoop=1;jettySize=auto;html=1;exitX=0;exitY=1;exitDx=0;exitDy=0;entryX=0.25;entryY=0;entryDx=0;entryDy=0;curved=1;fillColor=#dae8fc;strokeColor=#6c8ebf;" edge="1" parent="1" source="eo-bYz45HFi3uBXh9IhI-1" target="eo-bYz45HFi3uBXh9IhI-2">
          <mxGeometry relative="1" as="geometry" />
        </mxCell>
        <mxCell id="eo-bYz45HFi3uBXh9IhI-12" value="&lt;b&gt;Pull&lt;/b&gt;" style="edgeLabel;html=1;align=center;verticalAlign=middle;resizable=0;points=[];" vertex="1" connectable="0" parent="eo-bYz45HFi3uBXh9IhI-5">
          <mxGeometry x="-0.1" y="-4" relative="1" as="geometry">
            <mxPoint as="offset" />
          </mxGeometry>
        </mxCell>
        <mxCell id="eo-bYz45HFi3uBXh9IhI-6" style="edgeStyle=orthogonalEdgeStyle;rounded=0;orthogonalLoop=1;jettySize=auto;html=1;exitX=0.25;exitY=1;exitDx=0;exitDy=0;entryX=1;entryY=0;entryDx=0;entryDy=0;curved=1;startArrow=classic;startFill=1;endArrow=none;endFill=0;fillColor=#dae8fc;strokeColor=#6c8ebf;" edge="1" parent="1" source="eo-bYz45HFi3uBXh9IhI-1" target="eo-bYz45HFi3uBXh9IhI-2">
          <mxGeometry relative="1" as="geometry" />
        </mxCell>
        <mxCell id="eo-bYz45HFi3uBXh9IhI-17" value="&lt;b&gt;Push&lt;/b&gt;" style="edgeLabel;html=1;align=center;verticalAlign=middle;resizable=0;points=[];" vertex="1" connectable="0" parent="eo-bYz45HFi3uBXh9IhI-6">
          <mxGeometry x="-0.1714" y="-4" relative="1" as="geometry">
            <mxPoint as="offset" />
          </mxGeometry>
        </mxCell>
        <mxCell id="eo-bYz45HFi3uBXh9IhI-8" style="edgeStyle=orthogonalEdgeStyle;rounded=0;orthogonalLoop=1;jettySize=auto;html=1;exitX=1;exitY=0.5;exitDx=0;exitDy=0;curved=1;entryX=1;entryY=0;entryDx=0;entryDy=0;" edge="1" parent="1" source="eo-bYz45HFi3uBXh9IhI-1" target="eo-bYz45HFi3uBXh9IhI-3">
          <mxGeometry relative="1" as="geometry" />
        </mxCell>
        <mxCell id="eo-bYz45HFi3uBXh9IhI-13" value="&lt;b&gt;Clone&lt;/b&gt;" style="edgeLabel;html=1;align=center;verticalAlign=middle;resizable=0;points=[];" vertex="1" connectable="0" parent="eo-bYz45HFi3uBXh9IhI-8">
          <mxGeometry x="-0.2" y="-29" relative="1" as="geometry">
            <mxPoint as="offset" />
          </mxGeometry>
        </mxCell>
        <mxCell id="eo-bYz45HFi3uBXh9IhI-9" style="edgeStyle=orthogonalEdgeStyle;rounded=0;orthogonalLoop=1;jettySize=auto;html=1;exitX=1;exitY=1;exitDx=0;exitDy=0;entryX=0.5;entryY=0;entryDx=0;entryDy=0;curved=1;fillColor=#dae8fc;strokeColor=#6c8ebf;" edge="1" parent="1" source="eo-bYz45HFi3uBXh9IhI-1" target="eo-bYz45HFi3uBXh9IhI-3">
          <mxGeometry relative="1" as="geometry" />
        </mxCell>
        <mxCell id="eo-bYz45HFi3uBXh9IhI-15" value="&lt;b&gt;Pull&lt;/b&gt;" style="edgeLabel;html=1;align=center;verticalAlign=middle;resizable=0;points=[];" vertex="1" connectable="0" parent="eo-bYz45HFi3uBXh9IhI-9">
          <mxGeometry x="-0.1647" relative="1" as="geometry">
            <mxPoint as="offset" />
          </mxGeometry>
        </mxCell>
        <mxCell id="eo-bYz45HFi3uBXh9IhI-10" style="edgeStyle=orthogonalEdgeStyle;rounded=0;orthogonalLoop=1;jettySize=auto;html=1;exitX=0.75;exitY=1;exitDx=0;exitDy=0;entryX=0;entryY=0;entryDx=0;entryDy=0;curved=1;endArrow=none;endFill=0;startArrow=classic;startFill=1;fillColor=#dae8fc;strokeColor=#6c8ebf;" edge="1" parent="1" source="eo-bYz45HFi3uBXh9IhI-1" target="eo-bYz45HFi3uBXh9IhI-3">
          <mxGeometry relative="1" as="geometry" />
        </mxCell>
        <mxCell id="eo-bYz45HFi3uBXh9IhI-16" value="&lt;b&gt;Push&lt;/b&gt;" style="edgeLabel;html=1;align=center;verticalAlign=middle;resizable=0;points=[];" vertex="1" connectable="0" parent="eo-bYz45HFi3uBXh9IhI-10">
          <mxGeometry x="-0.2" y="3" relative="1" as="geometry">
            <mxPoint as="offset" />
          </mxGeometry>
        </mxCell>
        <mxCell id="eo-bYz45HFi3uBXh9IhI-1" value="共享版本库" style="rounded=1;whiteSpace=wrap;html=1;fillColor=#dae8fc;strokeColor=#6c8ebf;" vertex="1" parent="1">
          <mxGeometry x="340" y="110" width="120" height="60" as="geometry" />
        </mxCell>
        <mxCell id="eo-bYz45HFi3uBXh9IhI-2" value="dev_1" style="rounded=1;whiteSpace=wrap;html=1;fillColor=#dae8fc;strokeColor=#6c8ebf;" vertex="1" parent="1">
          <mxGeometry x="200" y="260" width="120" height="60" as="geometry" />
        </mxCell>
        <mxCell id="eo-bYz45HFi3uBXh9IhI-3" value="dev_2" style="rounded=1;whiteSpace=wrap;html=1;fillColor=#dae8fc;strokeColor=#6c8ebf;" vertex="1" parent="1">
          <mxGeometry x="480" y="260" width="120" height="60" as="geometry" />
        </mxCell>
        <mxCell id="eo-bYz45HFi3uBXh9IhI-18" style="edgeStyle=orthogonalEdgeStyle;rounded=0;orthogonalLoop=1;jettySize=auto;html=1;exitX=1;exitY=0.5;exitDx=0;exitDy=0;entryX=0.5;entryY=1;entryDx=0;entryDy=0;" edge="1" parent="1" source="eo-bYz45HFi3uBXh9IhI-2" target="eo-bYz45HFi3uBXh9IhI-2">
          <mxGeometry relative="1" as="geometry" />
        </mxCell>
        <mxCell id="eo-bYz45HFi3uBXh9IhI-20" value="&lt;b&gt;Commit&lt;/b&gt;" style="edgeLabel;html=1;align=center;verticalAlign=middle;resizable=0;points=[];" vertex="1" connectable="0" parent="eo-bYz45HFi3uBXh9IhI-18">
          <mxGeometry x="0.1294" relative="1" as="geometry">
            <mxPoint as="offset" />
          </mxGeometry>
        </mxCell>
        <mxCell id="eo-bYz45HFi3uBXh9IhI-19" style="edgeStyle=orthogonalEdgeStyle;rounded=0;orthogonalLoop=1;jettySize=auto;html=1;exitX=0;exitY=0.5;exitDx=0;exitDy=0;entryX=0.492;entryY=1.117;entryDx=0;entryDy=0;entryPerimeter=0;" edge="1" parent="1" source="eo-bYz45HFi3uBXh9IhI-3" target="eo-bYz45HFi3uBXh9IhI-3">
          <mxGeometry relative="1" as="geometry" />
        </mxCell>
        <mxCell id="eo-bYz45HFi3uBXh9IhI-21" value="&lt;b&gt;Commit&lt;/b&gt;" style="edgeLabel;html=1;align=center;verticalAlign=middle;resizable=0;points=[];" vertex="1" connectable="0" parent="eo-bYz45HFi3uBXh9IhI-19">
          <mxGeometry x="0.1359" y="-3" relative="1" as="geometry">
            <mxPoint as="offset" />
          </mxGeometry>
        </mxCell>
        <mxCell id="eo-bYz45HFi3uBXh9IhI-22" value="&lt;b&gt;远程仓库&lt;/b&gt;" style="text;html=1;strokeColor=none;fillColor=none;align=center;verticalAlign=middle;whiteSpace=wrap;rounded=0;" vertex="1" parent="1">
          <mxGeometry x="370" y="80" width="60" height="30" as="geometry" />
        </mxCell>
        <mxCell id="eo-bYz45HFi3uBXh9IhI-23" value="&lt;b&gt;本地仓库2&lt;/b&gt;" style="text;html=1;strokeColor=none;fillColor=none;align=center;verticalAlign=middle;whiteSpace=wrap;rounded=0;" vertex="1" parent="1">
          <mxGeometry x="210" y="350" width="60" height="30" as="geometry" />
        </mxCell>
        <mxCell id="eo-bYz45HFi3uBXh9IhI-24" value="&lt;b&gt;本地仓库2&lt;/b&gt;" style="text;html=1;strokeColor=none;fillColor=none;align=center;verticalAlign=middle;whiteSpace=wrap;rounded=0;" vertex="1" parent="1">
          <mxGeometry x="510" y="350" width="60" height="30" as="geometry" />
        </mxCell>
        <mxCell id="eo-bYz45HFi3uBXh9IhI-34" style="edgeStyle=orthogonalEdgeStyle;rounded=0;orthogonalLoop=1;jettySize=auto;html=1;exitX=0;exitY=1;exitDx=0;exitDy=0;exitPerimeter=0;entryX=1;entryY=0.92;entryDx=0;entryDy=0;entryPerimeter=0;curved=1;" edge="1" parent="1" source="eo-bYz45HFi3uBXh9IhI-25" target="eo-bYz45HFi3uBXh9IhI-26">
          <mxGeometry relative="1" as="geometry" />
        </mxCell>
        <mxCell id="eo-bYz45HFi3uBXh9IhI-44" value="&lt;b&gt;&lt;font style=&quot;font-size: 12px;&quot;&gt;commit&lt;/font&gt;&lt;/b&gt;" style="edgeLabel;html=1;align=center;verticalAlign=middle;resizable=0;points=[];" vertex="1" connectable="0" parent="eo-bYz45HFi3uBXh9IhI-34">
          <mxGeometry x="-0.1825" y="-6" relative="1" as="geometry">
            <mxPoint as="offset" />
          </mxGeometry>
        </mxCell>
        <mxCell id="eo-bYz45HFi3uBXh9IhI-25" value="" style="sketch=0;pointerEvents=1;shadow=0;dashed=0;html=1;strokeColor=none;labelPosition=center;verticalLabelPosition=bottom;verticalAlign=top;align=center;fillColor=#515151;shape=mxgraph.mscae.enterprise.database_server" vertex="1" parent="1">
          <mxGeometry x="510" y="660" width="60" height="50" as="geometry" />
        </mxCell>
        <mxCell id="eo-bYz45HFi3uBXh9IhI-30" style="edgeStyle=orthogonalEdgeStyle;rounded=0;orthogonalLoop=1;jettySize=auto;html=1;exitX=0;exitY=1;exitDx=0;exitDy=0;exitPerimeter=0;entryX=1;entryY=0.92;entryDx=0;entryDy=0;entryPerimeter=0;curved=1;" edge="1" parent="1" source="eo-bYz45HFi3uBXh9IhI-26" target="eo-bYz45HFi3uBXh9IhI-27">
          <mxGeometry relative="1" as="geometry" />
        </mxCell>
        <mxCell id="eo-bYz45HFi3uBXh9IhI-46" value="push" style="edgeLabel;html=1;align=center;verticalAlign=middle;resizable=0;points=[];" vertex="1" connectable="0" parent="eo-bYz45HFi3uBXh9IhI-30">
          <mxGeometry x="-0.1163" y="-3" relative="1" as="geometry">
            <mxPoint as="offset" />
          </mxGeometry>
        </mxCell>
        <mxCell id="eo-bYz45HFi3uBXh9IhI-32" style="edgeStyle=orthogonalEdgeStyle;rounded=0;orthogonalLoop=1;jettySize=auto;html=1;exitX=1;exitY=0.5;exitDx=0;exitDy=0;exitPerimeter=0;elbow=vertical;curved=1;entryX=0;entryY=0.5;entryDx=0;entryDy=0;" edge="1" parent="1" source="eo-bYz45HFi3uBXh9IhI-26" target="eo-bYz45HFi3uBXh9IhI-28">
          <mxGeometry relative="1" as="geometry">
            <Array as="points">
              <mxPoint x="390" y="630" />
              <mxPoint x="550" y="630" />
              <mxPoint x="550" y="650" />
              <mxPoint x="710" y="650" />
            </Array>
          </mxGeometry>
        </mxCell>
        <mxCell id="eo-bYz45HFi3uBXh9IhI-40" value="&lt;b&gt;&lt;font style=&quot;font-size: 12px;&quot;&gt;Checkout&lt;/font&gt;&lt;/b&gt;" style="edgeLabel;html=1;align=center;verticalAlign=middle;resizable=0;points=[];" vertex="1" connectable="0" parent="eo-bYz45HFi3uBXh9IhI-32">
          <mxGeometry x="-0.278" y="-1" relative="1" as="geometry">
            <mxPoint as="offset" />
          </mxGeometry>
        </mxCell>
        <mxCell id="eo-bYz45HFi3uBXh9IhI-26" value="" style="sketch=0;pointerEvents=1;shadow=0;dashed=0;html=1;strokeColor=none;labelPosition=center;verticalLabelPosition=bottom;verticalAlign=top;align=center;fillColor=#515151;shape=mxgraph.mscae.enterprise.database_server" vertex="1" parent="1">
          <mxGeometry x="310" y="600" width="80" height="110" as="geometry" />
        </mxCell>
        <mxCell id="eo-bYz45HFi3uBXh9IhI-29" style="edgeStyle=orthogonalEdgeStyle;rounded=0;orthogonalLoop=1;jettySize=auto;html=1;exitX=1;exitY=0.5;exitDx=0;exitDy=0;exitPerimeter=0;entryX=0;entryY=0.5;entryDx=0;entryDy=0;entryPerimeter=0;" edge="1" parent="1" source="eo-bYz45HFi3uBXh9IhI-27" target="eo-bYz45HFi3uBXh9IhI-26">
          <mxGeometry relative="1" as="geometry" />
        </mxCell>
        <mxCell id="eo-bYz45HFi3uBXh9IhI-39" value="&lt;b&gt;&lt;font style=&quot;font-size: 12px;&quot;&gt;fetch / clone&lt;/font&gt;&lt;/b&gt;" style="edgeLabel;html=1;align=center;verticalAlign=middle;resizable=0;points=[];" vertex="1" connectable="0" parent="eo-bYz45HFi3uBXh9IhI-29">
          <mxGeometry x="-0.2462" relative="1" as="geometry">
            <mxPoint as="offset" />
          </mxGeometry>
        </mxCell>
        <mxCell id="eo-bYz45HFi3uBXh9IhI-41" style="edgeStyle=orthogonalEdgeStyle;rounded=0;orthogonalLoop=1;jettySize=auto;html=1;exitX=0.5;exitY=0;exitDx=0;exitDy=0;exitPerimeter=0;entryX=0.008;entryY=-0.012;entryDx=0;entryDy=0;entryPerimeter=0;curved=1;" edge="1" parent="1" source="eo-bYz45HFi3uBXh9IhI-27" target="eo-bYz45HFi3uBXh9IhI-28">
          <mxGeometry relative="1" as="geometry" />
        </mxCell>
        <mxCell id="eo-bYz45HFi3uBXh9IhI-45" value="pull ( fetch / merge)" style="edgeLabel;html=1;align=center;verticalAlign=middle;resizable=0;points=[];" vertex="1" connectable="0" parent="eo-bYz45HFi3uBXh9IhI-41">
          <mxGeometry x="-0.1032" y="-1" relative="1" as="geometry">
            <mxPoint as="offset" />
          </mxGeometry>
        </mxCell>
        <mxCell id="eo-bYz45HFi3uBXh9IhI-27" value="" style="sketch=0;pointerEvents=1;shadow=0;dashed=0;html=1;strokeColor=none;labelPosition=center;verticalLabelPosition=bottom;verticalAlign=top;align=center;fillColor=#515151;shape=mxgraph.mscae.enterprise.database_server" vertex="1" parent="1">
          <mxGeometry x="100" y="600" width="80" height="110" as="geometry" />
        </mxCell>
        <mxCell id="eo-bYz45HFi3uBXh9IhI-42" style="edgeStyle=orthogonalEdgeStyle;rounded=0;orthogonalLoop=1;jettySize=auto;html=1;exitX=0;exitY=0.75;exitDx=0;exitDy=0;entryX=1;entryY=0.92;entryDx=0;entryDy=0;entryPerimeter=0;curved=1;" edge="1" parent="1" source="eo-bYz45HFi3uBXh9IhI-28" target="eo-bYz45HFi3uBXh9IhI-25">
          <mxGeometry relative="1" as="geometry">
            <Array as="points">
              <mxPoint x="650" y="690" />
              <mxPoint x="650" y="706" />
            </Array>
          </mxGeometry>
        </mxCell>
        <mxCell id="eo-bYz45HFi3uBXh9IhI-43" value="&lt;b&gt;&lt;font style=&quot;font-size: 12px;&quot;&gt;add&lt;/font&gt;&lt;/b&gt;" style="edgeLabel;html=1;align=center;verticalAlign=middle;resizable=0;points=[];" vertex="1" connectable="0" parent="eo-bYz45HFi3uBXh9IhI-42">
          <mxGeometry x="0.1795" y="-4" relative="1" as="geometry">
            <mxPoint as="offset" />
          </mxGeometry>
        </mxCell>
        <mxCell id="eo-bYz45HFi3uBXh9IhI-28" value="&lt;b&gt;Workspace&lt;/b&gt;" style="shape=document;whiteSpace=wrap;html=1;boundedLbl=1;rotation=0;" vertex="1" parent="1">
          <mxGeometry x="710" y="630" width="120" height="80" as="geometry" />
        </mxCell>
        <mxCell id="eo-bYz45HFi3uBXh9IhI-35" value="&lt;b&gt;&lt;font style=&quot;font-size: 14px;&quot;&gt;远程仓库&lt;/font&gt;&lt;/b&gt;" style="text;html=1;strokeColor=none;fillColor=none;align=center;verticalAlign=middle;whiteSpace=wrap;rounded=0;" vertex="1" parent="1">
          <mxGeometry x="100" y="740" width="60" height="30" as="geometry" />
        </mxCell>
        <mxCell id="eo-bYz45HFi3uBXh9IhI-36" value="&lt;b&gt;&lt;font style=&quot;font-size: 14px;&quot;&gt;本地仓库&lt;/font&gt;&lt;/b&gt;" style="text;html=1;strokeColor=none;fillColor=none;align=center;verticalAlign=middle;whiteSpace=wrap;rounded=0;" vertex="1" parent="1">
          <mxGeometry x="320" y="740" width="60" height="30" as="geometry" />
        </mxCell>
        <mxCell id="eo-bYz45HFi3uBXh9IhI-37" value="&lt;b&gt;&lt;font style=&quot;font-size: 14px;&quot;&gt;工作区&lt;/font&gt;&lt;/b&gt;" style="text;html=1;strokeColor=none;fillColor=none;align=center;verticalAlign=middle;whiteSpace=wrap;rounded=0;" vertex="1" parent="1">
          <mxGeometry x="740" y="740" width="60" height="30" as="geometry" />
        </mxCell>
        <mxCell id="eo-bYz45HFi3uBXh9IhI-38" value="&lt;b&gt;&lt;font style=&quot;font-size: 14px;&quot;&gt;暂存区&lt;/font&gt;&lt;/b&gt;" style="text;html=1;strokeColor=none;fillColor=none;align=center;verticalAlign=middle;whiteSpace=wrap;rounded=0;" vertex="1" parent="1">
          <mxGeometry x="510" y="740" width="60" height="30" as="geometry" />
        </mxCell>
        <mxCell id="eo-bYz45HFi3uBXh9IhI-48" value="&lt;b&gt;&lt;font color=&quot;#ff3333&quot;&gt;1. 抓取 / 克隆&lt;/font&gt;&lt;/b&gt;" style="text;html=1;strokeColor=none;fillColor=none;align=center;verticalAlign=middle;whiteSpace=wrap;rounded=0;" vertex="1" parent="1">
          <mxGeometry x="200" y="620" width="80" height="30" as="geometry" />
        </mxCell>
        <mxCell id="eo-bYz45HFi3uBXh9IhI-50" value="&lt;b&gt;&lt;font color=&quot;#ff3333&quot;&gt;2. 检出&lt;/font&gt;&lt;/b&gt;" style="text;html=1;strokeColor=none;fillColor=none;align=center;verticalAlign=middle;whiteSpace=wrap;rounded=0;" vertex="1" parent="1">
          <mxGeometry x="520" y="600" width="80" height="30" as="geometry" />
        </mxCell>
        <mxCell id="eo-bYz45HFi3uBXh9IhI-51" value="&lt;font style=&quot;&quot; color=&quot;#ff3333&quot;&gt;&lt;b&gt;3. 添加&lt;/b&gt;&lt;/font&gt;" style="text;html=1;strokeColor=none;fillColor=none;align=center;verticalAlign=middle;whiteSpace=wrap;rounded=0;" vertex="1" parent="1">
          <mxGeometry x="610" y="710" width="80" height="30" as="geometry" />
        </mxCell>
        <mxCell id="eo-bYz45HFi3uBXh9IhI-52" value="&lt;font color=&quot;#ff3333&quot;&gt;&lt;b&gt;4. 提交&lt;/b&gt;&lt;/font&gt;" style="text;html=1;strokeColor=none;fillColor=none;align=center;verticalAlign=middle;whiteSpace=wrap;rounded=0;" vertex="1" parent="1">
          <mxGeometry x="414" y="740" width="80" height="30" as="geometry" />
        </mxCell>
        <mxCell id="eo-bYz45HFi3uBXh9IhI-53" value="&lt;b&gt;&lt;font color=&quot;#ff3333&quot;&gt;5. 拉取&lt;/font&gt;&lt;/b&gt;" style="text;html=1;strokeColor=none;fillColor=none;align=center;verticalAlign=middle;whiteSpace=wrap;rounded=0;" vertex="1" parent="1">
          <mxGeometry x="370" y="530" width="80" height="30" as="geometry" />
        </mxCell>
        <mxCell id="eo-bYz45HFi3uBXh9IhI-54" value="&lt;b&gt;&lt;font color=&quot;#ff3333&quot;&gt;6. 推送&lt;/font&gt;&lt;/b&gt;" style="text;html=1;strokeColor=none;fillColor=none;align=center;verticalAlign=middle;whiteSpace=wrap;rounded=0;" vertex="1" parent="1">
          <mxGeometry x="210" y="740" width="80" height="30" as="geometry" />
        </mxCell>
        <mxCell id="eo-bYz45HFi3uBXh9IhI-56" value="" style="rounded=0;whiteSpace=wrap;html=1;" vertex="1" parent="1">
          <mxGeometry x="130" y="880" width="170" height="330" as="geometry" />
        </mxCell>
        <mxCell id="eo-bYz45HFi3uBXh9IhI-57" value="" style="rounded=0;whiteSpace=wrap;html=1;" vertex="1" parent="1">
          <mxGeometry x="300" y="880" width="260" height="330" as="geometry" />
        </mxCell>
        <mxCell id="eo-bYz45HFi3uBXh9IhI-58" value="" style="rounded=0;whiteSpace=wrap;html=1;" vertex="1" parent="1">
          <mxGeometry x="560" y="880" width="170" height="330" as="geometry" />
        </mxCell>
        <mxCell id="eo-bYz45HFi3uBXh9IhI-60" value="&lt;b&gt;&lt;font style=&quot;font-size: 16px;&quot;&gt;仓库（repository）&lt;/font&gt;&lt;/b&gt;" style="rounded=0;whiteSpace=wrap;html=1;" vertex="1" parent="1">
          <mxGeometry x="130" y="880" width="170" height="50" as="geometry" />
        </mxCell>
        <mxCell id="eo-bYz45HFi3uBXh9IhI-63" value="&lt;span style=&quot;font-size: 16px;&quot;&gt;&lt;b&gt;暂存区（index）&lt;/b&gt;&lt;/span&gt;" style="rounded=0;whiteSpace=wrap;html=1;" vertex="1" parent="1">
          <mxGeometry x="300" y="880" width="260" height="50" as="geometry" />
        </mxCell>
        <mxCell id="eo-bYz45HFi3uBXh9IhI-64" value="&lt;span style=&quot;font-size: 16px;&quot;&gt;&lt;b style=&quot;font-size: 15px;&quot;&gt;工作区（workspace）&lt;/b&gt;&lt;/span&gt;" style="rounded=0;whiteSpace=wrap;html=1;" vertex="1" parent="1">
          <mxGeometry x="560" y="880" width="170" height="50" as="geometry" />
        </mxCell>
        <mxCell id="eo-bYz45HFi3uBXh9IhI-76" style="edgeStyle=orthogonalEdgeStyle;rounded=0;orthogonalLoop=1;jettySize=auto;html=1;exitX=0;exitY=0.5;exitDx=0;exitDy=0;entryX=1;entryY=0.5;entryDx=0;entryDy=0;" edge="1" parent="1" source="eo-bYz45HFi3uBXh9IhI-65" target="eo-bYz45HFi3uBXh9IhI-69">
          <mxGeometry relative="1" as="geometry" />
        </mxCell>
        <mxCell id="eo-bYz45HFi3uBXh9IhI-93" value="&lt;b&gt;&lt;font style=&quot;font-size: 13px;&quot;&gt;git commit&lt;/font&gt;&lt;/b&gt;" style="edgeLabel;html=1;align=center;verticalAlign=middle;resizable=0;points=[];" vertex="1" connectable="0" parent="eo-bYz45HFi3uBXh9IhI-76">
          <mxGeometry x="0.2" relative="1" as="geometry">
            <mxPoint as="offset" />
          </mxGeometry>
        </mxCell>
        <mxCell id="eo-bYz45HFi3uBXh9IhI-65" value="&lt;b style=&quot;font-size: 14px;&quot;&gt;已暂存&lt;br&gt;staged&lt;/b&gt;" style="rounded=0;whiteSpace=wrap;html=1;fillColor=#f8cecc;strokeColor=#b85450;" vertex="1" parent="1">
          <mxGeometry x="365" y="990" width="90" height="80" as="geometry" />
        </mxCell>
        <mxCell id="eo-bYz45HFi3uBXh9IhI-77" style="edgeStyle=orthogonalEdgeStyle;rounded=0;orthogonalLoop=1;jettySize=auto;html=1;exitX=0;exitY=0.5;exitDx=0;exitDy=0;curved=1;" edge="1" parent="1" source="eo-bYz45HFi3uBXh9IhI-66" target="eo-bYz45HFi3uBXh9IhI-65">
          <mxGeometry relative="1" as="geometry">
            <Array as="points">
              <mxPoint x="558" y="1000" />
              <mxPoint x="558" y="1030" />
            </Array>
          </mxGeometry>
        </mxCell>
        <mxCell id="eo-bYz45HFi3uBXh9IhI-83" value="&lt;b&gt;&lt;font style=&quot;font-size: 13px;&quot;&gt;git add&lt;/font&gt;&lt;/b&gt;" style="edgeLabel;html=1;align=center;verticalAlign=middle;resizable=0;points=[];" vertex="1" connectable="0" parent="eo-bYz45HFi3uBXh9IhI-77">
          <mxGeometry x="0.3895" y="-3" relative="1" as="geometry">
            <mxPoint x="25" y="-7" as="offset" />
          </mxGeometry>
        </mxCell>
        <mxCell id="eo-bYz45HFi3uBXh9IhI-66" value="&lt;b style=&quot;font-size: 14px;&quot;&gt;未暂存&lt;br&gt;unstaged&lt;/b&gt;" style="rounded=0;whiteSpace=wrap;html=1;fillColor=#d5e8d4;strokeColor=#82b366;" vertex="1" parent="1">
          <mxGeometry x="590" y="960" width="90" height="80" as="geometry" />
        </mxCell>
        <mxCell id="eo-bYz45HFi3uBXh9IhI-78" style="edgeStyle=orthogonalEdgeStyle;rounded=0;orthogonalLoop=1;jettySize=auto;html=1;exitX=0;exitY=0.5;exitDx=0;exitDy=0;curved=1;" edge="1" parent="1" source="eo-bYz45HFi3uBXh9IhI-67" target="eo-bYz45HFi3uBXh9IhI-65">
          <mxGeometry relative="1" as="geometry" />
        </mxCell>
        <mxCell id="eo-bYz45HFi3uBXh9IhI-89" value="&lt;b&gt;&lt;font style=&quot;font-size: 12px;&quot;&gt;git add&lt;/font&gt;&lt;/b&gt;" style="edgeLabel;html=1;align=center;verticalAlign=middle;resizable=0;points=[];" vertex="1" connectable="0" parent="eo-bYz45HFi3uBXh9IhI-78">
          <mxGeometry x="-0.186" y="-7" relative="1" as="geometry">
            <mxPoint x="1" y="1" as="offset" />
          </mxGeometry>
        </mxCell>
        <mxCell id="eo-bYz45HFi3uBXh9IhI-67" value="&lt;b style=&quot;font-size: 14px;&quot;&gt;未跟踪&lt;br&gt;untrachked&lt;/b&gt;" style="rounded=0;whiteSpace=wrap;html=1;fillColor=#d5e8d4;strokeColor=#82b366;" vertex="1" parent="1">
          <mxGeometry x="590" y="1070" width="90" height="80" as="geometry" />
        </mxCell>
        <mxCell id="eo-bYz45HFi3uBXh9IhI-74" style="edgeStyle=orthogonalEdgeStyle;rounded=0;orthogonalLoop=1;jettySize=auto;html=1;exitX=0.5;exitY=0;exitDx=0;exitDy=0;entryX=0.5;entryY=1;entryDx=0;entryDy=0;" edge="1" parent="1" source="eo-bYz45HFi3uBXh9IhI-68" target="eo-bYz45HFi3uBXh9IhI-70">
          <mxGeometry relative="1" as="geometry" />
        </mxCell>
        <mxCell id="eo-bYz45HFi3uBXh9IhI-68" value="" style="ellipse;whiteSpace=wrap;html=1;aspect=fixed;" vertex="1" parent="1">
          <mxGeometry x="160" y="1120" width="20" height="20" as="geometry" />
        </mxCell>
        <mxCell id="eo-bYz45HFi3uBXh9IhI-69" value="" style="ellipse;whiteSpace=wrap;html=1;aspect=fixed;" vertex="1" parent="1">
          <mxGeometry x="160" y="1020" width="20" height="20" as="geometry" />
        </mxCell>
        <mxCell id="eo-bYz45HFi3uBXh9IhI-75" style="edgeStyle=orthogonalEdgeStyle;rounded=0;orthogonalLoop=1;jettySize=auto;html=1;exitX=0.5;exitY=0;exitDx=0;exitDy=0;entryX=0.5;entryY=1;entryDx=0;entryDy=0;" edge="1" parent="1" source="eo-bYz45HFi3uBXh9IhI-70" target="eo-bYz45HFi3uBXh9IhI-69">
          <mxGeometry relative="1" as="geometry" />
        </mxCell>
        <mxCell id="eo-bYz45HFi3uBXh9IhI-70" value="" style="ellipse;whiteSpace=wrap;html=1;aspect=fixed;" vertex="1" parent="1">
          <mxGeometry x="160" y="1070" width="20" height="20" as="geometry" />
        </mxCell>
        <mxCell id="eo-bYz45HFi3uBXh9IhI-80" style="edgeStyle=orthogonalEdgeStyle;rounded=0;orthogonalLoop=1;jettySize=auto;html=1;exitX=0;exitY=0.5;exitDx=0;exitDy=0;" edge="1" parent="1" target="eo-bYz45HFi3uBXh9IhI-66">
          <mxGeometry relative="1" as="geometry">
            <mxPoint x="800" y="1000" as="sourcePoint" />
          </mxGeometry>
        </mxCell>
        <mxCell id="eo-bYz45HFi3uBXh9IhI-94" value="&lt;b&gt;修改已有文件&lt;/b&gt;" style="edgeLabel;html=1;align=center;verticalAlign=middle;resizable=0;points=[];" vertex="1" connectable="0" parent="eo-bYz45HFi3uBXh9IhI-80">
          <mxGeometry x="-0.2364" y="1" relative="1" as="geometry">
            <mxPoint as="offset" />
          </mxGeometry>
        </mxCell>
        <mxCell id="eo-bYz45HFi3uBXh9IhI-82" style="edgeStyle=orthogonalEdgeStyle;rounded=0;orthogonalLoop=1;jettySize=auto;html=1;" edge="1" parent="1" target="eo-bYz45HFi3uBXh9IhI-67">
          <mxGeometry relative="1" as="geometry">
            <mxPoint x="800" y="1110" as="sourcePoint" />
          </mxGeometry>
        </mxCell>
        <mxCell id="eo-bYz45HFi3uBXh9IhI-95" value="&lt;b&gt;新创建一个文件&lt;/b&gt;" style="edgeLabel;html=1;align=center;verticalAlign=middle;resizable=0;points=[];" vertex="1" connectable="0" parent="eo-bYz45HFi3uBXh9IhI-82">
          <mxGeometry x="-0.1865" y="2" relative="1" as="geometry">
            <mxPoint as="offset" />
          </mxGeometry>
        </mxCell>
        <mxCell id="eo-bYz45HFi3uBXh9IhI-90" value="&lt;b&gt;commit 01&lt;/b&gt;" style="text;html=1;strokeColor=none;fillColor=none;align=center;verticalAlign=middle;whiteSpace=wrap;rounded=0;" vertex="1" parent="1">
          <mxGeometry x="185" y="1115" width="75" height="35" as="geometry" />
        </mxCell>
        <mxCell id="eo-bYz45HFi3uBXh9IhI-91" value="&lt;b&gt;commit 02&lt;/b&gt;" style="text;html=1;strokeColor=none;fillColor=none;align=center;verticalAlign=middle;whiteSpace=wrap;rounded=0;" vertex="1" parent="1">
          <mxGeometry x="185" y="1062.5" width="75" height="35" as="geometry" />
        </mxCell>
        <mxCell id="eo-bYz45HFi3uBXh9IhI-92" value="&lt;b&gt;commit 03&lt;/b&gt;" style="text;html=1;strokeColor=none;fillColor=none;align=center;verticalAlign=middle;whiteSpace=wrap;rounded=0;" vertex="1" parent="1">
          <mxGeometry x="170" y="990" width="75" height="35" as="geometry" />
        </mxCell>
        <mxCell id="eo-bYz45HFi3uBXh9IhI-96" value="&lt;b&gt;提交到仓库之前的缓存区&lt;/b&gt;" style="text;html=1;strokeColor=none;fillColor=none;align=center;verticalAlign=middle;whiteSpace=wrap;rounded=0;" vertex="1" parent="1">
          <mxGeometry x="340" y="1100" width="150" height="40" as="geometry" />
        </mxCell>
      </root>
    </mxGraphModel>
  </diagram>
</mxfile>
